<svg xmlns="http://www.w3.org/2000/svg" viewBox="0 0 24 24" width="24" height="24">
  <!-- Google Logo -->
  <g transform="translate(0 0)">
    <!-- Blue G -->
    <path d="M12 2C6.48 2 2 6.48 2 12s4.48 10 10 10 10-4.48 10-10S17.52 2 12 2zm0 18c-4.41 0-8-3.59-8-8s3.59-8 8-8 8 3.59 8 8-3.59 8-8 8z" fill="#4285F4"/>
    
    <!-- Google G letter in multiple colors -->
    <circle cx="12" cy="12" r="9" fill="none" stroke-width="0.5"/>
    
    <!-- Stylized G with Google colors -->
    <g transform="translate(12, 12)">
      <circle cx="0" cy="0" r="8" fill="none" stroke="#4285F4" stroke-width="1"/>
      <path d="M -4,-2 Q -2,-4 0,-4 Q 2,-4 4,-2 L 4,1 L 0,1 L 0,-1 L 2,-1 Q 1.5,-2.5 0,-2.5 Q -1.5,-2.5 -2,-1 L -4,-1 Z" fill="#EA4335" opacity="0.3"/>
      <path d="M 4,-2 Q 4,0 4,2" stroke="#34A853" stroke-width="1.5" fill="none"/>
      <path d="M -4,2 L 0,2 L 0,0" stroke="#FBBC04" stroke-width="1.5" fill="none"/>
    </g>
  </g>
</svg>
